<?xml version="1.0" encoding="UTF-8"?>
<svg id="Calque_1" data-name="Calque 1" xmlns="http://www.w3.org/2000/svg" viewBox="0 0 2000 1764.27">
  <defs>
    <style>
      .cls-1 {
        fill: #029f9f;
      }
    </style>
  </defs>
  <polygon class="cls-1" points="1508.41 263.39 1242.07 263.39 963.79 684.67 1241.69 1107.1 1501.47 1107.1 1226.65 686.98 1508.41 263.39"/>
  <polygon points="1146.12 263.39 879.79 263.39 609.38 672.75 609.33 672.74 491.52 851.59 491.13 1106.92 706.14 1106.92 709.7 849.13 879.41 1107.1 1139.19 1107.1 864.37 686.98 1146.12 263.39"/>
  <polygon points="711.93 263.39 491.4 263.39 491.24 723.3 711.33 390.12 711.93 263.39"/>
  <g>
    <path class="cls-1" d="M262.61,1501.33v-262.8h62.33v112.07l89.16-112.07h77.72l-97.24,120.89,109.81,141.91h-80.15l-70.76-94.79-28.54,32.47v62.32h-62.33Z"/>
    <path d="M508.15,1501.33l98.17-262.8h72.27l99.12,262.8h-70.21l-18.57-53.12h-94.23l-18.22,53.12h-68.32ZM608.76,1396.03h65.7l-33.03-90.85-32.67,90.85Z"/>
    <path d="M809.98,1501.33v-262.8h61.58l108.12,161.06v-161.06h60.45v262.8h-61.58l-108.32-163.31v163.31h-60.26Z"/>
    <path class="cls-1" d="M1085.55,1501.33v-52l116.76-153.92h-112.45v-56.88h187.9v51.62l-116.19,154.31h117.13v56.88h-193.17Z"/>
    <path class="cls-1" d="M1408.23,1506.96c-21.03,0-39.51-4.22-55.47-12.67-15.96-8.44-28.34-20.27-37.17-35.47-8.82-15.21-13.23-33.01-13.23-53.41,0-14.77,2.57-28.35,7.7-40.73,5.13-12.39,12.39-23.09,21.78-32.1,9.39-9.01,20.42-15.98,33.13-20.93,12.7-4.94,26.69-7.41,41.96-7.41,16.77,0,31.73,2.97,44.87,8.92,13.15,5.94,24,14.2,32.57,24.78,8.57,10.58,14.48,23.02,17.73,37.36,3.26,14.33,3.38,29.88.38,46.65h-143.79c.12,7.51,2.37,14.08,6.75,19.71,4.39,5.64,10.4,10.04,18.03,13.24,7.63,3.19,16.51,4.79,26.65,4.79,11.26,0,21.96-1.47,32.1-4.42,10.14-2.94,19.83-7.47,29.09-13.61l19.34,41.68c-5.88,4.5-13.49,8.54-22.8,12.1-9.32,3.56-19.21,6.38-29.66,8.45-10.46,2.07-20.44,3.1-29.94,3.1ZM1362.43,1380.44h81.47c-.26-9.63-3.82-17.33-10.7-23.09-6.88-5.76-16.2-8.64-27.97-8.64s-21.74,2.88-29.56,8.64c-7.82,5.75-12.23,13.45-13.23,23.09Z"/>
    <path class="cls-1" d="M1540.57,1501.33v-191.47h61.58v20.27c7.13-9.02,15.58-15.58,25.33-19.71,9.77-4.13,20.03-6.19,30.79-6.19,18.02,0,32.84,3.53,44.48,10.61,11.64,7.07,20.24,16.2,25.81,27.4,5.56,11.2,8.35,23.06,8.35,35.57v123.52h-61.56v-104.18c0-11.51-3.03-20.59-9.1-27.22-6.08-6.63-15-9.95-26.75-9.95-7.51,0-14.06,1.66-19.62,4.98-5.57,3.32-9.92,7.91-13.05,13.79-3.13,5.88-4.69,12.7-4.69,20.46v102.12h-61.58Z"/>
  </g>
</svg>