<?xml version="1.0" encoding="UTF-8"?>
<svg id="Calque_1" data-name="Calque 1" xmlns="http://www.w3.org/2000/svg" viewBox="0 0 2000 1422.81">
  <defs>
    <style>
      .cls-1 {
        fill: #029f9f;
      }

      .cls-2 {
        fill: #fff;
      }
    </style>
  </defs>
  <polygon class="cls-1" points="713.04 212.95 496.92 212.95 725.55 556.67 502.55 897.59 713.35 897.59 938.85 554.8 713.04 212.95"/>
  <polygon class="cls-2" points="1497.45 212.63 1286.65 212.63 1224.72 306.46 1331.37 466.29 1497.45 212.63"/>
  <polygon class="cls-2" points="1048.01 213.57 835.33 213.57 1060.52 554.8 835.33 896.34 1050.2 896.34 1167.48 716.81 1286.33 896.96 1503.08 896.96 1048.01 213.57"/>
  <path class="cls-2" d="M213.58,1208.72l63.34-104.3-60.71-100.49h58.52l37.01,63.63,38.18-63.63h57.05l-62.17,101.37,63.49,103.42h-58.95l-39.64-67.44-38.77,67.44h-57.35Z"/>
  <path class="cls-2" d="M436.52,1208.72v-204.8h82.07c15.31,0,28.87,2.68,40.67,8.04,11.8,5.37,21.09,13.1,27.87,23.19,6.78,10.09,10.17,22.26,10.17,36.49s-3.12,26.68-9.36,36.72c-6.24,10.05-15.31,17.7-27.21,22.96-11.9,5.27-26.33,7.9-43.3,7.9h-32.33v69.49h-48.57ZM485.08,1098.57h31.16c10.14,0,18.09-2.02,23.85-6.07,5.75-4.04,8.63-10.7,8.63-19.96s-2.95-16.31-8.85-20.55c-5.9-4.24-13.68-6.36-23.33-6.36h-31.45v52.95Z"/>
  <path class="cls-2" d="M628.88,1208.72v-204.8h48.57v204.8h-48.57Z"/>
  <path class="cls-2" d="M725.71,1208.72v-204.8h83.09c15.21,0,28.5,2.48,39.86,7.46,11.36,4.98,20.14,12.12,26.33,21.43,6.19,9.32,9.29,20.55,9.29,33.72,0,10.05-1.9,18.87-5.7,26.48-3.8,7.61-9.02,13.97-15.65,19.1-6.63,5.12-14.14,8.9-22.52,11.33l55.15,85.29h-57.64l-45.64-75.34h-17.99v75.34h-48.57ZM774.28,1094.48h28.67c10.14,0,18.07-1.99,23.77-5.99,5.7-4,8.55-10.29,8.55-18.87s-2.7-15.38-8.12-19.53c-5.41-4.14-13.14-6.21-23.18-6.21h-29.7v50.61Z"/>
  <path class="cls-2" d="M926.71,1208.72v-204.8h48.57v204.8h-48.57Z"/>
  <path class="cls-2" d="M1023.55,1208.72v-204.8h143.95v42.12h-95.38v38.04h80.02v38.91h-80.02v43.15h96.55v42.57h-145.11Z"/>
  <path class="cls-2" d="M1209.33,1208.72v-204.8h47.98l84.26,125.51v-125.51h47.1v204.8h-47.98l-84.4-127.27v127.27h-46.96Z"/>
  <path class="cls-2" d="M1531.74,1213.11c-21.26,0-39.96-4.34-56.1-13.02-16.14-8.68-28.74-20.96-37.82-36.86-9.07-15.89-13.6-34.67-13.6-56.32,0-15.8,2.65-30.26,7.97-43.37,5.32-13.11,12.83-24.45,22.53-34.01,9.7-9.55,21.14-16.94,34.3-22.16,13.17-5.21,27.65-7.83,43.45-7.83,17.07,0,31.4,2.17,43.01,6.51,11.6,4.34,22.08,10.46,31.45,18.36l-24.28,39.79c-5.76-5.85-12.61-10.21-20.55-13.1-7.95-2.87-16.75-4.32-26.4-4.32s-18.07,1.39-25.53,4.17c-7.46,2.78-13.8,6.76-19.02,11.92-5.21,5.17-9.19,11.41-11.92,18.72-2.73,7.32-4.1,15.56-4.1,24.73,0,12.39,2.46,23.02,7.39,31.89,4.93,8.87,11.97,15.68,21.14,20.41,9.17,4.73,20.14,7.1,32.91,7.1,9.17,0,18.26-1.39,27.29-4.17,9.02-2.78,17.58-7.29,25.67-13.53l22.23,40.82c-9.46,7.31-20.77,13.19-33.93,17.62-13.17,4.43-28.53,6.65-46.08,6.65Z"/>
  <path class="cls-2" d="M1641.31,1208.72v-204.8h143.95v42.12h-95.38v38.04h80.02v38.91h-80.02v43.15h96.55v42.57h-145.11Z"/>
</svg>