<?xml version="1.0" encoding="UTF-8"?>
<svg id="Calque_1" data-name="Calque 1" xmlns="http://www.w3.org/2000/svg" viewBox="0 0 2000 363.76">
  <defs>
    <style>
      .cls-1 {
        fill: #029f9f;
      }
    </style>
  </defs>
  <g>
    <path d="M427.67,294.35V69.83h93c16.88,0,31.92,2.93,45.31,8.99,13.21,6.05,23.66,14.67,31.37,26.05,7.52,11.37,11.37,24.95,11.37,40.91s-3.49,29.9-10.64,41.09c-6.97,11.37-17.24,19.81-30.63,25.86-13.39,6.05-29.35,8.99-48.24,8.99h-32.65v72.82h-59.07l.18-.18ZM486.73,172.55h30.45c10.09,0,18.16-2.02,23.85-5.87,5.69-4.04,8.62-10.64,8.62-19.99s-2.93-16.51-8.99-20.54c-6.05-4.04-13.57-6.05-23.11-6.05h-30.82v52.46h0Z"/>
    <path d="M641,294.35V69.83h59.07v224.52h-59.07Z"/>
    <path d="M641,294.35V69.83h59.07v224.52h-59.07Z"/>
    <path d="M751.06,294.35V69.83h93.18c17.06,0,32.1,2.75,44.76,8.25,12.84,5.5,22.75,13.39,29.72,23.66,6.97,10.27,10.46,22.75,10.46,37.42s-2.02,20.54-6.05,28.8c-4.04,8.25-9.36,15.22-16.33,20.91-6.79,5.69-14.49,9.91-22.93,12.84l57.96,92.82h-69.7l-46.04-79.98h-15.96v79.98h-59.07v-.18ZM810.12,167.6h27.51c9.91,0,17.79-1.83,23.48-5.69,5.69-3.85,8.62-10.09,8.62-19.08s-2.75-15.41-8.25-19.26c-5.5-3.85-13.21-5.69-23.11-5.69h-28.43v49.71h.18Z"/>
    <path d="M973.93,294.35V69.83h59.07v224.52h-59.07Z"/>
    <path d="M1083.99,294.35V69.83h162.15v50.99h-103.09v35.4h85.48v46.78h-85.48v39.62h104.37v51.73h-163.44Z"/>
    <path d="M1290.17,294.35V69.83h58.7l85.48,129.14V69.83h57.05v224.52h-58.7l-85.48-131.15v131.15h-57.05Z"/>
    <path d="M1647.13,299.12c-23.3,0-43.84-4.77-61.63-14.12-17.79-9.54-31.73-22.93-41.64-40.36-10.09-17.43-15.04-37.97-15.04-61.82s2.93-33.2,8.8-47.69c5.87-14.49,14.12-26.96,24.76-37.42,10.64-10.46,23.3-18.53,37.79-24.21,14.49-5.69,30.45-8.62,47.88-8.62s35.4,2.38,48.24,7.34c12.84,4.95,24.4,11.74,35.04,20.73l-29.17,48.43c-6.05-6.24-13.21-11.01-21.83-14.31-8.44-3.12-17.98-4.77-28.43-4.77s-18.34,1.47-26.05,4.22c-7.52,2.75-13.94,6.79-19.26,11.92-5.14,5.14-9.17,11.37-11.92,18.71-2.75,7.34-4.04,15.59-4.04,24.76s2.38,23.11,7.34,31.92c4.95,8.8,11.92,15.78,21.28,20.54,9.17,4.77,20.36,7.15,33.38,7.15s19.26-1.47,28.98-4.4c9.72-2.93,18.89-7.7,27.7-14.12l26.96,49.34c-10.27,7.89-22.75,14.31-37.42,19.26-14.67,4.95-31.92,7.52-51.73,7.52h0Z"/>
    <path d="M1766.73,294.35V69.83h162.15v50.99h-103.09v35.4h85.48v46.78h-85.48v39.62h104.37v51.73h-163.44Z"/>
  </g>
  <polygon class="cls-1" points="140.58 70.24 69.83 70.24 144.67 182.75 71.68 294.35 140.68 294.35 214.5 182.14 140.58 70.24"/>
  <polygon points="397.35 70.13 328.34 70.13 308.07 100.85 342.98 153.17 397.35 70.13"/>
  <polygon points="250.23 70.44 180.61 70.44 254.32 182.14 180.61 293.94 250.94 293.94 289.34 235.17 328.24 294.14 399.19 294.14 250.23 70.44"/>
</svg>