<?xml version="1.0" encoding="UTF-8"?>
<svg id="Calque_1" data-name="Calque 1" xmlns="http://www.w3.org/2000/svg" viewBox="0 0 2000 533.78">
  <defs>
    <style>
      .cls-1 {
        fill: #029f9f;
      }
    </style>
  </defs>
  <path class="cls-1" d="M107.89,422.49V104.48h75.42v135.6l107.89-135.6h94.04l-117.67,146.28,132.87,171.72h-96.98l-85.63-114.71-34.53,39.29v75.41h-75.42Z"/>
  <path d="M405.01,422.49l118.79-318h87.45l119.94,318h-84.96l-22.47-64.28h-114.03l-22.04,64.28h-82.67ZM526.75,295.06h79.49l-39.96-109.94-39.53,109.94Z"/>
  <path d="M770.23,422.49V104.48h74.51l130.83,194.89V104.48h73.15v318h-74.51l-131.07-197.62v197.62h-72.91Z"/>
  <path class="cls-1" d="M1103.68,422.49v-62.92l141.29-186.25h-136.07v-68.82h227.37v62.46l-140.59,186.72h141.74v68.82h-233.74Z"/>
  <path class="cls-1" d="M1494.14,429.3c-25.44,0-47.81-5.11-67.12-15.33-19.31-10.21-34.29-24.53-44.98-42.93-10.67-18.4-16.01-39.94-16.01-64.62,0-17.87,3.1-34.3,9.31-49.29,6.21-14.99,15-27.94,26.35-38.84,11.36-10.9,24.71-19.34,40.08-25.32,15.37-5.98,32.29-8.97,50.77-8.97,20.3,0,38.4,3.6,54.29,10.79,15.91,7.19,29.04,17.18,39.41,29.98,10.37,12.8,17.52,27.86,21.46,45.2,3.94,17.34,4.09,36.16.46,56.45h-173.99c.15,9.09,2.87,17.03,8.16,23.85,5.31,6.82,12.58,12.15,21.82,16.02,9.24,3.86,19.98,5.79,32.25,5.79,13.62,0,26.58-1.78,38.84-5.34,12.27-3.55,24-9.04,35.2-16.47l23.4,50.43c-7.12,5.45-16.33,10.33-27.59,14.65-11.28,4.31-23.25,7.72-35.89,10.22-12.65,2.5-24.73,3.75-36.23,3.75ZM1438.72,276.2h98.58c-.31-11.65-4.63-20.97-12.95-27.94-8.33-6.97-19.61-10.45-33.85-10.45s-26.31,3.48-35.77,10.45c-9.46,6.96-14.8,16.28-16.01,27.94Z"/>
  <path class="cls-1" d="M1654.28,422.49v-231.69h74.51v24.53c8.63-10.91,18.85-18.86,30.65-23.85,11.82-5,24.23-7.49,37.26-7.49,21.8,0,39.74,4.28,53.83,12.83,14.09,8.55,24.49,19.61,31.23,33.16,6.73,13.56,10.1,27.91,10.1,43.05v149.46h-74.5v-126.06c0-13.93-3.67-24.91-11.01-32.94-7.36-8.02-18.15-12.04-32.37-12.04-9.09,0-17.01,2.01-23.74,6.02-6.75,4.01-12,9.57-15.79,16.69-3.79,7.12-5.67,15.37-5.67,24.76v123.57h-74.51Z"/>
</svg>